<?xml version="1.0" encoding="UTF-8" standalone="no"?>
<svg
   xmlns:dc="http://purl.org/dc/elements/1.1/"
   xmlns:cc="http://creativecommons.org/ns#"
   xmlns:rdf="http://www.w3.org/1999/02/22-rdf-syntax-ns#"
   xmlns:svg="http://www.w3.org/2000/svg"
   xmlns="http://www.w3.org/2000/svg"
   id="svg1812"
   version="1.1"
   viewBox="0 0 81.639534 130.62321"
   height="130.62321mm"
   width="81.639534mm">
  <defs
     id="defs1806" />
  <metadata
     id="metadata1809">
    <rdf:RDF>
      <cc:Work
         rdf:about="">
        <dc:format>image/svg+xml</dc:format>
        <dc:type
           rdf:resource="http://purl.org/dc/dcmitype/StillImage" />
        <dc:title></dc:title>
      </cc:Work>
    </rdf:RDF>
  </metadata>
  <g
     transform="translate(-79.376662,-74.450296)"
     id="layer1">
    <g
       id="g1786"
       transform="matrix(0.26458333,0,0,0.26458333,-118.37024,211.53455)">
      <g
         style="fill:#dcc12f;fill-opacity:1;stroke:#ffffff;stroke-opacity:1"
         transform="matrix(0.96124258,0,0,0.96124258,655.5912,-517.6331)"
         id="g12-8-0">
        <path
           style="fill:#dcc12f;fill-opacity:1;stroke:#ffffff;stroke-opacity:1"
           id="path10-9-6"
           d="M 256,0 C 167.641,0 96,71.625 96,160 c 0,24.75 5.625,48.219 15.672,69.125 C 112.234,230.313 256,512 256,512 L 398.594,232.625 C 409.719,210.844 416,186.156 416,160 416,71.625 344.375,0 256,0 Z m 0,256 c -53.016,0 -96,-43 -96,-96 0,-53 42.984,-96 96,-96 53,0 96,43 96,96 0,53 -43,96 -96,96 z" />
      </g>
      <path
         id="path51-7-3"
         d="m 960.50073,-379.63845 c -4.34323,0 -8.5099,0.76724 -12.37398,2.17125 l -8.68461,-15.83623 c -0.2565,-0.46763 -0.57321,-0.88024 -0.93043,-1.24119 l 8.0341,-12.95536 h 9.71242 c 3.07938,0 5.57588,-2.4965 5.57588,-5.57588 0,-3.07937 -2.4965,-5.57586 -5.57588,-5.57586 h -31.80962 c -3.07938,0 -5.57588,2.49649 -5.57588,5.57586 0,3.07938 2.4965,5.57588 5.57588,5.57588 h 8.97492 l -5.1521,8.30806 h -62.258 l 3.31913,-10.69899 h 12.84497 c 8.15973,0 14.79837,-6.63864 14.79837,-14.79874 v -2.41882 c 0,-3.07938 -2.4965,-5.57588 -5.57588,-5.57588 -3.07937,0 -5.57588,2.4965 -5.57588,5.57588 v 2.41882 c 0,2.01102 -1.63596,3.64698 -3.64661,3.64698 h -16.9529 c -2.44297,0 -4.60158,1.59025 -5.32534,3.92357 l -11.74874,37.87022 c -1.73446,-0.25537 -3.50796,-0.38957 -5.31231,-0.38957 -20.03301,0 -36.33055,16.29754 -36.33055,36.33017 0,20.03264 16.29754,36.33019 36.33017,36.33019 20.03264,0 36.33017,-16.29755 36.33017,-36.33019 0,-14.30917 -8.31659,-26.71104 -20.36904,-32.63038 l 3.15781,-10.17821 35.37038,43.89997 c 1.06201,1.31815 2.66081,2.07759 4.34138,2.07759 0.11412,0 0.22899,-0.003 0.34347,-0.0106 1.80435,-0.11115 3.44291,-1.09027 4.39565,-2.6266 l 25.48658,-41.09755 6.46318,11.78517 c -8.62179,6.64867 -14.18725,17.0763 -14.18725,28.78118 0,20.03264 16.29754,36.33017 36.33017,36.33017 20.03263,0 36.33055,-16.29828 36.33055,-36.33092 0,-20.03263 -16.29755,-36.33017 -36.33018,-36.33017 z m -92.48407,36.33017 c 0,13.88357 -11.29487,25.17844 -25.17842,25.17844 -13.88357,0 -25.1788,-11.29487 -25.1788,-25.17844 0,-13.88355 11.29486,-25.17841 25.17842,-25.17841 0.6561,0 1.30402,0.0331 1.94784,0.0828 l -7.27316,23.44359 c -0.91259,2.94146 0.73191,6.06506 3.67301,6.97765 0.55015,0.17062 1.10661,0.25203 1.6538,0.25203 2.3783,0 4.58225,-1.53411 5.32385,-3.92505 l 7.27168,-23.43912 c 7.51405,4.36108 12.58178,12.49071 12.58178,21.78643 z m 33.05936,-12.0305 -26.34749,-32.7014 h 46.62733 z m 59.42471,37.20894 c -13.88355,0 -25.17842,-11.29487 -25.17842,-25.17844 0,-7.48654 3.2879,-14.21624 8.49132,-18.83233 l 11.79818,21.5136 c 1.01406,1.84933 2.92362,2.89573 4.89375,2.89573 0.90626,0 1.82556,-0.22155 2.67643,-0.68806 2.70021,-1.48058 3.68863,-4.86997 2.20768,-7.57018 l -11.80414,-21.52399 c 2.19875,-0.62933 4.51683,-0.97318 6.9152,-0.97318 13.88356,0 25.17843,11.29486 25.17843,25.17841 0,13.88357 -11.29487,25.17844 -25.17843,25.17844 z"
         style="fill:#dcc12f;fill-opacity:1;stroke:#ffffff;stroke-opacity:1" />
      <path
         style="fill:#ffffff;stroke:none;stroke-width:1.09047794"
         d="m 879.80557,-274.66342 c -17.46156,-4.426 -34.14367,-14.41054 -46.03873,-27.55501 -3.29442,-3.64046 -5.8674,-6.74149 -5.71772,-6.89117 0.14968,-0.14968 2.97042,0.45294 6.26831,1.33915 8.03529,2.15926 16.31801,1.17504 24.76113,-2.94231 17.71253,-8.63764 25.06126,-29.76126 16.8285,-48.37278 -2.03731,-4.60568 -9.26198,-12.82982 -14.01508,-15.95396 -2.21934,-1.45873 -2.31381,-1.94263 -1.18201,-6.05441 l 1.23012,-4.46896 13.6312,17.00946 c 23.17379,28.91701 22.89597,28.62296 26.6862,28.2459 3.05949,-0.30437 4.42424,-2.09642 16.58505,-21.77774 l 13.25123,-21.44607 2.82965,5.76956 2.82966,5.76955 -3.78404,3.66764 c -2.08122,2.0172 -5.07397,6.30414 -6.65054,9.52654 -2.38841,4.88175 -2.8808,7.4302 -2.9523,15.28031 -0.0748,8.2079 0.30666,10.22063 2.96124,15.62633 7.69467,15.66915 25.99666,24.48134 41.93517,20.19128 3.14875,-0.84753 5.725,-1.15345 5.725,-0.67982 0,0.47362 -3.86592,4.6955 -8.59095,9.38194 -10.32515,10.24082 -22.11283,17.49936 -36.18573,22.28221 -9.38591,3.18992 -11.68514,3.52911 -26.10438,3.85105 -12.97839,0.28979 -17.33319,-0.0325 -24.30098,-1.79869 z"
         id="path1370-2" />
      <path
         style="fill:#ffffff;stroke:none;stroke-width:1.09047794"
         d="m 836.75383,-319.35196 c -5.57977,-1.32347 -11.87411,-6.07753 -14.91368,-11.26417 -9.31654,-15.89747 0.0234,-34.42315 18.85302,-37.39487 4.42992,-0.69914 4.66521,-0.61263 3.58058,1.3165 -0.6385,1.13565 -2.65478,6.87166 -4.48062,12.7467 -3.47661,11.18672 -3.34719,13.69895 0.81807,15.88097 1.91783,1.00468 6.08812,-0.008 7.15756,-1.7388 0.32462,-0.52526 2.2499,-6.43615 4.27838,-13.13533 l 3.68816,-12.1803 3.89163,4.06246 c 5.659,5.90741 7.40337,10.07379 7.40337,17.68272 0,8.10996 -2.51093,13.52308 -8.75003,18.86352 -6.22382,5.32736 -13.48468,7.06803 -21.52644,5.1606 z"
         id="path1372-0" />
      <path
         style="fill:#ffffff;stroke:none;stroke-width:1.09047794"
         d="m 890.4107,-369.21823 c -5.96195,-7.51342 -11.92058,-14.82986 -13.24141,-16.25875 l -2.40151,-2.59798 23.66583,0.0167 c 13.0162,0.009 23.16002,0.37723 22.54182,0.81786 -1.10299,0.78618 -15.54541,23.6271 -18.31494,28.96538 -1.39191,2.6829 -1.54818,2.5433 -12.24979,-10.9432 z"
         id="path1374-6" />
      <path
         style="fill:#ffffff;stroke:none;stroke-width:1.09047794"
         d="m 810.62777,-371.17256 c 0.51856,-11.8374 4.73404,-26.8481 10.25908,-36.53101 18.12172,-31.75923 51.46201,-50.01744 86.94789,-47.61547 31.43834,2.12799 58.64443,19.51379 74.5109,47.61547 6.45674,11.43578 11.88351,32.65382 11.00121,43.01341 l -0.36635,4.30144 -3.01326,-4.57251 c -6.15007,-9.33249 -21.66584,-16.31961 -32.97251,-14.84831 -2.99882,0.39023 -6.31114,1.16099 -7.36073,1.7128 -1.10672,0.58185 -1.90833,0.59255 -1.90833,0.0255 0,-0.53781 -1.94975,-4.52488 -4.33276,-8.86016 l -4.33275,-7.88233 3.77397,-5.89966 c 3.70564,-5.79284 3.86854,-5.89966 8.99726,-5.89966 6.44299,0 10.07049,-2.30052 10.07049,-6.3866 0,-5.29728 -1.18326,-5.60866 -21.3134,-5.60866 -17.18322,0 -18.85277,0.17295 -20.63023,2.13702 -4.25333,4.69987 0.30125,9.85824 8.70432,9.85824 h 3.69497 l -1.85762,3.23941 -1.85762,3.23942 -31.35195,0.30464 c -20.60441,0.20021 -31.18909,-0.0692 -30.87686,-0.78584 0.2613,-0.59976 1.07537,-2.93066 1.80904,-5.17977 l 1.33394,-4.08929 h 9.05851 c 8.54303,0 9.27407,-0.18927 12.84655,-3.32594 7.51956,-6.60227 7.68161,-19.61093 0.24362,-19.5574 -3.71437,0.0267 -5.30568,1.64654 -6.03196,6.13997 l -0.67931,4.20287 -10.99635,0.54524 c -6.14245,0.30457 -11.69219,1.12317 -12.57275,1.85453 -0.86701,0.72011 -4.23091,10.0437 -7.47533,20.71908 l -5.89895,19.40979 -6.81414,0.16836 c -11.19232,0.27653 -22.80298,6.76896 -28.9511,16.18881 l -2.13519,3.27143 z"
         id="path1376-1" />
      <path
         style="fill:#ffffff;stroke:none;stroke-width:1.09047794"
         d="m 950.14456,-320.86375 c -2.23003,-1.11878 -5.22366,-3.08164 -6.6525,-4.36192 -3.91049,-3.50388 -7.74233,-12.49935 -7.72705,-18.1397 0.0135,-4.99482 3.0442,-13.1319 6.18263,-16.59982 1.62491,-1.79551 1.97,-1.48434 5.42028,4.88754 2.02669,3.74282 4.73021,8.84673 6.00784,11.34201 2.80249,5.47344 6.02315,7.27029 9.73339,5.4304 4.33749,-2.15094 3.77037,-5.81678 -2.72767,-17.63156 l -5.98052,-10.87384 2.92739,-0.79507 c 9.25113,-2.51257 21.56343,4.59961 25.91765,14.97128 8.4397,20.10322 -13.80349,41.45217 -33.10144,31.77068 z"
         id="path1378-5" />
    </g>
  </g>
</svg>
